<?xml version="1.0" standalone="no"?>
<!DOCTYPE svg PUBLIC "-//W3C//DTD SVG 20010904//EN"
 "http://www.w3.org/TR/2001/REC-SVG-20010904/DTD/svg10.dtd">
<svg version="1.0" xmlns="http://www.w3.org/2000/svg"
 width="700.000000pt" height="700.000000pt" viewBox="0 0 700.000000 700.000000"
 preserveAspectRatio="xMidYMid meet">
<metadata>
Created by potrace 1.14, written by Peter Selinger 2001-2017
</metadata>
<g transform="translate(0.000000,700.000000) scale(0.100000,-0.100000)"
fill="#000000" stroke="none">
<path d="M3405 6408 c-93 -8 -107 -10 -195 -33 -338 -88 -748 -411 -1001 -790
-84 -126 -182 -325 -235 -480 -15 -44 -42 -99 -61 -122 -37 -47 -116 -90 -178
-97 -63 -7 -204 -52 -290 -91 -177 -81 -372 -244 -477 -400 -128 -191 -237
-490 -273 -745 -3 -25 -8 -56 -10 -70 -9 -58 -17 -202 -17 -298 2 -295 54
-539 162 -758 92 -186 181 -266 332 -297 102 -21 220 3 558 110 96 31 204 64
240 75 l65 19 25 -33 c40 -52 263 -331 286 -358 12 -14 41 -47 64 -75 52 -61
146 -168 180 -205 14 -15 49 -54 79 -86 29 -33 122 -129 205 -214 159 -162
216 -234 290 -366 76 -136 144 -334 162 -474 9 -73 56 -207 106 -300 53 -100
59 -106 93 -89 58 30 140 286 195 614 39 229 90 313 290 480 52 44 157 142
233 218 115 117 176 185 330 377 38 47 155 209 333 465 12 16 27 28 35 27 8
-2 77 -24 154 -49 119 -38 254 -79 290 -87 6 -2 30 -8 55 -15 25 -7 56 -15 69
-18 14 -2 28 -6 32 -8 9 -6 76 -17 124 -19 62 -4 174 22 235 55 92 49 174 139
212 234 110 271 142 383 173 595 12 91 14 393 2 450 -3 14 -8 45 -11 71 -3 25
-7 52 -10 60 -3 7 -7 25 -10 39 -30 175 -152 466 -265 633 -185 272 -407 426
-760 527 -65 19 -81 29 -131 78 -52 53 -59 66 -99 182 -127 369 -335 673 -626
918 -319 268 -624 379 -960 350z m-30 -186 c-12 -10 -145 -35 -152 -28 -2 2
31 11 74 19 43 8 80 15 83 16 2 1 0 -3 -5 -7z m215 1 c0 -5 -45 -8 -100 -8
-55 0 -100 3 -100 8 0 4 45 7 100 7 55 0 100 -3 100 -7z m95 -13 c27 -7 27 -8
5 -8 -14 0 -38 4 -55 8 -27 7 -27 8 -5 8 14 0 39 -4 55 -8z m131 -35 c38 -14
71 -25 73 -25 2 0 2 -2 0 -4 -2 -3 -43 8 -89 24 -47 16 -78 30 -69 30 9 0 47
-11 85 -25z m-636 0 c-19 -7 -60 -23 -90 -35 -30 -12 -51 -18 -47 -13 12 12
139 62 157 62 8 0 -1 -6 -20 -14z m760 -50 c17 -9 30 -18 30 -21 0 -4 -59 23
-69 32 -10 9 13 3 39 -11z m-910 -9 c0 -3 -14 -11 -30 -20 -17 -8 -28 -10 -24
-5 3 6 16 14 28 19 26 11 26 11 26 6z m990 -42 c0 -2 -9 0 -20 6 -11 6 -20 13
-20 16 0 2 9 0 20 -6 11 -6 20 -13 20 -16z m-1101 -25 c-24 -18 -54 -41 -66
-52 -13 -11 -23 -18 -23 -14 0 9 113 97 124 97 5 0 -11 -14 -35 -31z m1157
-10 c3 -6 -5 -3 -20 6 -14 10 -26 19 -26 22 0 7 39 -17 46 -28z m65 -45 c9
-11 2 -9 -18 6 -18 13 -33 25 -33 27 0 8 38 -17 51 -33z m-1331 -27 c-8 -8
-63 -58 -121 -113 l-106 -99 114 113 c63 61 117 112 121 112 3 0 0 -6 -8 -13z
m1371 -4 c13 -16 12 -17 -3 -4 -10 7 -18 15 -18 17 0 8 8 3 21 -13z m55 -45
l29 -33 -32 29 c-31 28 -38 36 -30 36 2 0 16 -15 33 -32z m119 -108 c44 -44
77 -80 75 -80 -3 0 -41 36 -85 80 -44 44 -77 80 -75 80 3 0 41 -36 85 -80z
m-1805 -104 c0 -2 -8 -10 -17 -17 -16 -13 -17 -12 -4 4 13 16 21 21 21 13z
m1930 -31 c13 -14 21 -25 18 -25 -2 0 -15 11 -28 25 -13 14 -21 25 -18 25 2 0
15 -11 28 -25z m-345 -2345 c10 -11 16 -20 13 -20 -3 0 -13 9 -23 20 -10 11
-16 20 -13 20 3 0 13 -9 23 -20z m110 -120 c27 -27 47 -50 44 -50 -3 0 -27 23
-54 50 -27 28 -47 50 -44 50 3 0 27 -22 54 -50z m185 -170 c51 -49 50 -48 -15
8 -38 33 -81 73 -95 88 -28 32 17 -7 110 -96z m150 -128 c0 -3 -31 19 -72 51
-10 8 -18 17 -18 21 0 4 20 -10 45 -31 25 -20 45 -39 45 -41z m90 -69 c0 -7
-56 35 -71 54 -8 9 5 2 29 -17 23 -18 42 -35 42 -37z m-2055 7 c-3 -5 -12 -10
-18 -10 -7 0 -6 4 3 10 19 12 23 12 15 0z m-35 -15 c0 -2 -10 -9 -22 -15 -22
-11 -22 -10 -4 4 21 17 26 19 26 11z m2151 -32 c13 -16 12 -17 -3 -4 -10 7
-18 15 -18 17 0 8 8 3 21 -13z m-2201 3 c0 -2 -25 -20 -55 -40 -30 -20 -55
-34 -55 -31 0 4 101 75 107 75 2 0 3 -2 3 -4z m2320 -83 c0 -7 -61 31 -73 46
-7 8 7 2 31 -14 23 -15 42 -30 42 -32z m-2440 3 c0 -3 -15 -14 -32 -26 l-33
-22 30 26 c31 27 35 29 35 22z m2490 -32 c0 -2 -9 0 -20 6 -11 6 -20 13 -20
16 0 2 9 0 20 -6 11 -6 20 -13 20 -16z m-2560 -19 c0 -2 -20 -18 -45 -35 -25
-17 -45 -29 -45 -26 0 4 80 64 88 66 1 0 2 -2 2 -5z m2705 -63 c-3 -3 -11 0
-18 7 -9 10 -8 11 6 5 10 -3 15 -9 12 -12z m-2830 -22 c-3 -6 9 -43 29 -83 41
-85 110 -158 193 -204 69 -39 63 -44 -8 -7 -90 45 -170 132 -213 231 -17 37
-17 73 -1 73 4 0 3 -5 0 -10z m2910 -10 c3 -6 -1 -7 -9 -4 -18 7 -21 14 -7 14
6 0 13 -4 16 -10z m-2598 -316 c-3 -3 -12 -4 -19 -1 -8 3 -5 6 6 6 11 1 17 -2
13 -5z m50 -10 c-3 -3 -12 -4 -19 -1 -8 3 -5 6 6 6 11 1 17 -2 13 -5z m160
-190 c-3 -3 -12 -4 -19 -1 -8 3 -5 6 6 6 11 1 17 -2 13 -5z m800 0 c-3 -3 -12
-4 -19 -1 -8 3 -5 6 6 6 11 1 17 -2 13 -5z m160 0 c-3 -3 -12 -4 -19 -1 -8 3
-5 6 6 6 11 1 17 -2 13 -5z m606 -1 c-7 -2 -19 -2 -25 0 -7 3 -2 5 12 5 14 0
19 -2 13 -5z m-493 -657 c0 -2 -8 -10 -17 -17 -16 -13 -17 -12 -4 4 13 16 21
21 21 13z m-90 -92 c-30 -30 -63 -60 -74 -66 -10 -5 13 20 50 56 84 80 98 86
24 10z m-105 -84 c-3 -5 -12 -10 -18 -10 -7 0 -6 4 3 10 19 12 23 12 15 0z
m-68 -26 c-3 -3 -12 -4 -19 -1 -8 3 -5 6 6 6 11 1 17 -2 13 -5z"/>
</g>
</svg>
