<svg id="Layer_1" data-name="Layer 1" xmlns="http://www.w3.org/2000/svg" viewBox="0 0 2977.09 1237.91"><defs><style>.cls-1{fill:#140f0f;}.cls-2{fill:#221d1b;}.cls-3{fill:#433e3c;}.cls-4{fill:#aca3a2;}.cls-5{fill:#201917;}.cls-6{fill:#1d1515;}.cls-7{fill:#191212;}.cls-8{fill:#110b0c;}.cls-9{fill:#241e1d;}.cls-10{fill:#2d2a28;}.cls-11{fill:#eade2e;}.cls-12{fill:#e9dc2e;}.cls-13{fill:#b2ab41;}</style></defs><path class="cls-1" d="M2988.91,851.31q-.07,24.95-.16,49.88c0,6.08.79,5.2-5.3,5.23-10.3.05-20.6,0-30.89.07-2.42,0-3.6-.57-3.31-3.15a30.81,30.81,0,0,0,0-3.33q0-249.22,0-498.45c0-7.74-.74-6.38,6.61-6.44,9.35-.08,18.7,0,28,0,4.05,0,4.13,0,4.56,4.08.27,2.51.26,5.06.36,7.59,0,.65.15,1.23.88,1.45v1.9c-1.68.94-.9,2.53-.9,3.82q-.07,26.37,0,52.73,0,98.09,0,196.18,0,56.77-.07,113.53c0,14.56.13,29.13.19,43.69C2988.59,830.49,2988.72,840.9,2988.91,851.31Z" transform="translate(-12.64 -132.41)"/><path class="cls-2" d="M1485.5,1370.32c-.16-1.21-1.29-1.74-1.88-2.64-3.55-5.37-1-11.17,5.41-11.82,3.77-.39,7.59-.32,11.38-.64,18.4-1.54,34.65-8.61,48.78-20.21a36.59,36.59,0,0,0,13.5-26.77c.56-8.56.12-17.1.12-25.65,0-30.74-.15-61.47-.11-92.2,0-7.59.61-15.19.79-22.79,0-2.11.86-2.71,2.85-2.66,4.59.1,9.19.11,13.78,0,1.79,0,2.47.56,2.74,2.32a75.84,75.84,0,0,1,.8,11.84c0,27.09,0,54.18.09,81.27,0,12.35.39,24.7.66,37.05a66.58,66.58,0,0,1-2.94,22c-4.32,13.46-12.52,23.86-24.38,31.67-12.86,8.46-27.19,12.5-42,15.38a42.06,42.06,0,0,0-9.6,2.58c-.52.24-1.21.41-1,1.27Z" transform="translate(-12.64 -132.41)"/><path class="cls-3" d="M2988.92,820.08c-.06-14.56-.19-29.13-.19-43.69q0-56.76.07-113.53,0-98.08,0-196.18,0-26.37,0-52.73c0-1.29-.78-2.88.9-3.82V819.87A1.45,1.45,0,0,1,2988.92,820.08Z" transform="translate(-12.64 -132.41)"/><path class="cls-4" d="M13.91,541.33H12.64V518.51l1.59-.11C14,526,14.54,533.69,13.91,541.33Z" transform="translate(-12.64 -132.41)"/><path class="cls-4" d="M2988.92,820.08a1.45,1.45,0,0,0,.81-.21v31.38l-.41.06h-.41C2988.72,840.9,2988.59,830.49,2988.92,820.08Z" transform="translate(-12.64 -132.41)"/><path class="cls-5" d="M1782.19,349.73h-259.1c-.16,2,1.38,1.89,2.17,2.18,11.87,4.42,23.21,10.06,34.84,15a75.56,75.56,0,0,1,20.75,13.16c19.75,17.56,37.72,36.63,51.57,59.3A184.33,184.33,0,0,1,1647,468.67c2.41,6.2,5.28,12.19,7.82,18.32,3.11,7.51,8.79,11.3,16.58,12.46,23.23,3.44,43.17,13.95,61.12,28.61a87.44,87.44,0,0,1,19.85,23.47,186.82,186.82,0,0,1,25.35,78.33c3.23,33.73-1.07,66.3-14.48,97.53-.62,1.46-1.28,2.9-2,4.32-9.69,20-26.13,28.34-48.46,26.9-18-1.16-35.12-6.25-51.73-13.12-4.24-1.75-8.49-3.48-12.81-5-5.29-1.87-6.83-1.28-9.9,3.37-12.5,18.91-25.64,37.35-41,54.1-12.84,14-26.66,27.08-40.38,40.24-6.86,6.58-13.72,13.16-20.37,20-7.18,7.36-11,16.5-13.09,26.44-5.1,24.29-9.49,48.74-15.24,72.9-2.53,10.61-5.23,21.17-9.48,31.27-13.32,31.66-37.85,48.59-71.12,53.6-17.71,2.67-35.42.94-52.92-2.4-42.69-8.15-83-23.26-122.18-41.78-29.24-13.83-57.77-28.83-83.76-48.25-48-35.86-88.77-78.4-119-130.4-26.23-45.18-44.41-93.62-55.56-144.65a370.72,370.72,0,0,1-7.17-54.08c-1.93-28.35-1.07-56.67.27-85,1.41-29.82,8.59-58.39,17.92-86.59,18.55-56,45.58-107.33,82.83-153.19,16.75-20.63,35.85-38.86,56.16-55.91,21.39-18,43.62-34.73,68-48.39a483.24,483.24,0,0,1,97.73-41.13c20.32-6.09,40.79-11.52,61.78-14.75,14.57-2.24,29.2-4,44-3.24a120.64,120.64,0,0,1,35.69,7.18c18.8,6.95,32.7,19.49,40.24,38,5,12.28,13.13,16.82,26,16.66,56.41-.68,112.83-.37,169.24-.22a76.56,76.56,0,0,1,21,3.29,29,29,0,0,1,14.1,9.25,48.19,48.19,0,0,1,7.34,11.6c14,31,28.28,61.82,39.8,93.84C1773.66,324.37,1777.71,336.67,1782.19,349.73Zm-305-155.63c-2.88-5.3-5.21-10.1-8-14.63A49.31,49.31,0,0,0,1442.33,158c-7.42-2.56-15.08-3.41-22.83-4a185.38,185.38,0,0,0-45.92,1.88c-10.63,1.81-20.74,5.67-31.33,7.59a159.37,159.37,0,0,0-22.6,5.38c-35.88,12.09-71,25.9-103.48,45.7-25.22,15.34-49.65,31.7-71.77,51.29-35.27,31.25-62.62,68.69-84.85,110-14.67,27.26-24.94,56.32-34.28,85.73-7.35,23.12-12.93,46.67-15,70.88-1.91,22.57-3.1,45.19-3.41,67.85-.24,18.09.45,36.11,3.4,54,5,30.21,13.38,59.53,24.11,88.15,11.57,30.88,28.5,58.94,47.37,85.78,18.06,25.71,38.64,49.41,60.65,71.81a317.2,317.2,0,0,0,68.81,53.5c17.58,10.05,35.71,19.05,54.08,27.6,31,14.43,62.52,27.48,96.06,35,15,3.36,29.87,7.12,45.21,8.38,24.46,2,55.89-8.64,70.9-39.77,7.74-16,11.19-32.76,6.33-50.19-5-18-9.18-36.14-12.69-54.48-1.89-9.88-5.75-18.82-14.3-24.88-17.73-12.58-32.51-28.21-46.34-44.8-18.46-22.15-35.58-45.36-53.14-68.21-.87-1.13-1.68-2.31-2.6-3.39-2.49-3-3.82-3.23-7.43-1.56-1,.47-2,1-2.94,1.54a190,190,0,0,1-35.68,14.06c-12.53,3.45-25.2,6.6-38.3,6-20-.84-34.59-10-42.66-28.75-1.19-2.75-2.31-5.54-3.39-8.34a188.32,188.32,0,0,1-11.15-41.09c-.8-5.48-1.35-11-1.79-16.52-1.53-19.19-1.25-38.25,4.27-56.93,3.36-11.38,6.64-22.79,11.31-33.7,13.56-31.7,35.69-54.92,68-67.88,9.15-3.67,18.78-5.53,28.49-7.06,10.37-1.64,17.85-6.89,21-17.36.63-2.11,1.55-4.14,2.35-6.21a218.59,218.59,0,0,1,63.37-89.82c15.89-13.51,33.26-24.11,53.67-29.3,4.89-1.25,9.68-2.94,14.49-4.47.77-.25,2,0,2-1.94h-194.2c-12.83,0-25.67.05-38.5,0s-25.74.29-38.73-.23c.51-3.11.95-5.6,1.32-8.09.88-5.9,4-10.92,6.21-16.32,13.15-32.36,26.26-64.74,40-96.88a69.79,69.79,0,0,1,16.14-23.22,36.06,36.06,0,0,1,15.12-8.58c6.47-1.91,13.1-2.08,19.76-2.08q82,0,164,0Zm30.25,330.09c3.28,12.13,6.58,23.68,9.54,35.32,8.24,32.37,22.11,61.83,44.19,87.2a308.36,308.36,0,0,0,27.13,27.93c30.94,27.57,66.64,46.87,105.56,60.52a62.17,62.17,0,0,0,16.69,3.46,40.6,40.6,0,0,0,20.65-4.32c5.42-2.63,7.82-7.59,10.39-12.51,9-17.37,13.86-35.95,15.68-55.34.88-9.29,1.5-18.62.57-28a207.16,207.16,0,0,0-10.23-45.76c-13.61-40.37-40.16-67-83.06-75.44-28.24-5.54-56.68-5.44-85.18-3-16.41,1.37-32.74,3.52-49,6.17C1522.93,521.61,1515.45,522.87,1507.47,524.19Zm-127.35-12.06c-8.22.27-18.83.49-29.39,1.7-14.16,1.63-28.19,3.93-41.76,8.5-19.78,6.65-36.31,17.72-47.86,35.47a258.28,258.28,0,0,0-16,28c-5.42,11.14-9.69,22.7-11.53,35a178.44,178.44,0,0,0,2.83,67.9,186.57,186.57,0,0,0,13.4,37.42c3.55,7.44,9.41,11.32,17.54,11.77,4.43.24,8.87.34,13.3.21a45.67,45.67,0,0,0,24.62-7.53,23.76,23.76,0,0,1,8.13-3.77c10.62-2.29,20.44-6.6,29.83-11.93a439.44,439.44,0,0,0,40-25.47c17.55-12.69,33.63-27,46.43-44.56a330.69,330.69,0,0,0,36-62.37c7.78-17.82,11.6-36.71,15.65-55.56.41-1.92-.1-2.46-1.92-2.78-9.66-1.66-19.31-3.43-29-5.2A405.63,405.63,0,0,0,1380.12,512.13Zm-126.7-221.07h482.06a22,22,0,0,0-2.07-9.27c-6.51-15.78-13-31.55-19.79-47.22a32,32,0,0,0-21.34-18.82,41.41,41.41,0,0,0-11.74-1.35q-185.32,0-370.66,0c-1,0-1.9,0-2.85,0-14.5.39-25,6.69-30.83,20.37-6.26,14.68-12.41,29.41-18.3,44.24C1256.39,282.84,1255,286.7,1253.42,291.06Zm382.71,203.39c-2.59-6.32-4.72-11.75-7-17.1-11.93-27.43-27.51-52.32-49.89-72.63-13.53-12.27-28.48-22.08-45.64-28.42-23.68-8.75-47.51-10.07-71.38-.81-18.76,7.28-34.65,19-49,32.79-22.83,21.88-38.35,48.55-50,77.64-2.73,6.79-1.43,8.58,6.07,8.22,12.84-.61,25.61.27,38.4,1.29,22.09,1.76,43.91,5.44,65.69,9.36,12.39,2.23,24.77,3.35,37.25,1,20.51-3.83,41-7.43,61.84-9.51,17.33-1.74,34.64-3.31,52.09-1.9C1628,494.69,1631.66,494.45,1636.13,494.45ZM1625,726.24c-1-1.75-2.67-2.42-4.08-3.39-11.48-7.9-23.1-15.56-33.51-24.93-7.47-6.71-16.56-9.69-26.68-9.31q-7.12.27-14.26.31c-40.4.22-80.8-.43-121.2.52a35.7,35.7,0,0,0-19.19,5.95c-11,7.2-21.31,15.38-31.64,23.51-3.16,2.48-3.5,4.08-1.71,7.84,2.64,5.57,5.29,11.15,8.25,16.56,3.57,6.54,9.21,10.19,16.68,11.13a69,69,0,0,0,9.94.54c10.77-.23,21.54-.07,32.31-.34,14.1-.36,28.2-.15,42.31-.17l110.76-.1a47,47,0,0,0,7.58-.51A17.79,17.79,0,0,0,1613,746C1617.43,739.64,1621.19,732.89,1625,726.24Zm-221.57,46c1.69,2.21,2.78,3.74,4,5.19,11.38,13.82,23.14,27.31,35.74,40,11.5,11.61,23.66,22.48,37.13,31.78,13.64,9.43,25.56,8.64,38-2.23.36-.31.7-.64,1-1,12.32-11.4,24.46-23,37-34.15a219.55,219.55,0,0,0,33.51-36.75c.58-.81,1.86-1.47,1-2.9Zm32.47-101.75h115.31c.45-.89,0-1.41-.36-1.9q-17.24-27.54-34.51-55.05a11.76,11.76,0,0,0-10.73-5.78c-6.49,0-13,.2-19.46,0s-11.2,2.6-14.49,8.06q-3.42,5.69-6.85,11.37C1456,641.75,1446.5,656,1435.93,670.51Zm56.58-110.59-7.58,30.72h20.57C1503.91,579.32,1500.54,569.14,1492.51,559.92Z" transform="translate(-12.64 -132.41)"/><path class="cls-6" d="M2769.21,647.47c5.38,2.35,10.67,4.69,16,7,11.18,4.82,22.36,9.64,33.2,15.2,24.32,12.46,43.64,30.12,56.72,54.33,17.4,32.21,17.17,64.4,0,96.59C2865,839.44,2850.28,854,2833,866.27c-17.75,12.59-37.47,21-58,27.6-13.7,4.37-27.35,9-41.68,11a206.26,206.26,0,0,1-26.47,2.37q-30.18.39-60.37.44-80.57.13-161.13.14c-21.55,0-43.1-.06-64.64-.08-5.6,0-7.06-1.29-7.11-6.94-.14-16.32-.15-32.64-.31-49-.73-72.87-1.81-145.73-1.54-218.6q.34-92.43,1.2-184.85c.14-14.4.2-28.83,1.32-43.21.37-4.69-.61-4.54,4.87-4.55q44.2,0,88.41-.1c49.44,0,98.88-.2,148.31.2,35,.28,68.91,6.62,100.82,21.69,20.07,9.48,38.35,21.6,53.94,37.47,17.36,17.68,28.42,38.74,31.57,63.45,3.55,27.82-3.65,53-20,75.66-7.28,10.11-16.22,18.62-25.91,26.35-7.43,5.93-15,11.71-22.43,17.59C2772.24,644.23,2770.42,645.28,2769.21,647.47ZM2588,874.14q55.62,0,111.23,0a221.58,221.58,0,0,0,28.89-1.82,167.55,167.55,0,0,0,59.23-19.14,107.67,107.67,0,0,0,43-41.84,74.45,74.45,0,0,0,10.08-35.7c.44-20.83-6.38-39.16-19.77-55-12.2-14.44-27.4-24.88-44.85-31.9a222,222,0,0,0-86.24-16c-30.89.36-61.78.12-92.67.11q-59.89,0-119.78.14c-4.59,0-9.18.24-13.77.48-4.41.23-4.44.29-4.44,4.55q0,96,0,192c0,4.5-.37,4,4.08,4.07h125Zm-24.83-234.86v-.08c27.57,0,55.13,0,82.69,0a243.37,243.37,0,0,0,38.33-2.72,174.92,174.92,0,0,0,68.69-26c18.43-11.94,32.32-27.8,40.56-48.3,5.27-13.11,6.73-26.56,3.36-40.46-4.19-17.28-13.13-31.77-25.78-44-21.35-20.68-46.77-33.72-75.74-40.08-16.35-3.6-33-4.29-49.59-4.37-59.71-.28-119.44-.19-179.15-.23a19.29,19.29,0,0,0-3.32.17c-2.45.43-4,1.8-4.15,4.43-.06,1.1-.09,2.21-.09,3.32q0,94.56,0,189.11c0,8.59.64,9.21,9.11,9.21Z" transform="translate(-12.64 -132.41)"/><path class="cls-7" d="M1817.38,649.7q0-117.86,0-235.71c0-5.24.44-10.44.79-15.65.14-2.17,1-2.74,2.93-2.56.63.06,1.27,0,1.9,0q82.95.07,165.88.15a460.62,460.62,0,0,1,67.17,5.37c22.39,3.31,44.67,7.06,66.67,12.45,42.93,10.51,83.13,27.16,119.83,52.1,19.44,13.21,38.18,27.2,54.64,44,26.77,27.36,44.85,59.84,55.76,96.37,4.48,15,5.09,30.58,5.13,46.1.06,28.46-6.1,55.47-19.25,80.89a257.38,257.38,0,0,1-49.42,66.37,287,287,0,0,1-42.74,34.68c-27.34,18-56.62,32.06-87.21,43.61-22.16,8.36-45.05,13.7-68.25,17.91-20.55,3.72-41.12,7.29-61.67,11a77,77,0,0,1-13.72.91q-96,0-192,0a12,12,0,0,0-1.9,0c-2.3.37-3.11-.81-3.27-2.9-.43-5.67-1.27-11.3-1.26-17Q1817.43,768.74,1817.38,649.7Zm45.65,3.85q.77,58.68,1.53,117.37c.41,32.94.68,65.89.51,98.84,0,4.5-.6,4.38,4.31,4.38,10.94,0,21.87.06,32.8.05,36.29,0,72.57,0,108.85-.19a233.61,233.61,0,0,0,50.88-5.69c10.17-2.34,20.15-5.43,30.37-7.6,16.71-3.55,33.27-7.6,49.31-13.63,40.47-15.21,75.51-39,107-68.16a199.93,199.93,0,0,0,30.8-36.67c13.18-20,21.15-42,25.8-65.31,2.05-10.27,3.8-20.59,3.3-31.08a161.2,161.2,0,0,0-18.09-66.32c-15.5-30.3-37.49-55.07-64.48-75.59-33.38-25.36-70.57-43.2-110.38-55.82-40-12.68-81.15-18-123-18.76-39.13-.7-78.27-.12-117.4-.16a27.63,27.63,0,0,0-4.71.46c-8.14,1.44-8.14,1.46-8.14,10C1862.25,511,1862.08,582.27,1863,653.55Z" transform="translate(-12.64 -132.41)"/><path class="cls-6" d="M13.91,541.33c.63-7.64.05-15.29.32-22.93,1.62-2.25,2.05-4.87,2.59-7.53,3.53-17.47,12-32.56,22.82-46.42,15.27-19.52,34.81-33.58,57.26-43.6a304,304,0,0,1,81.39-23.19,266.26,266.26,0,0,1,61.62-1.15c13.09,1.17,26.17,2.28,39,5.07,7.59,1.65,14.84,4.49,22.35,6.37,8.58,2.16,17.29,3.85,25.86,6,18.68,4.76,36.37,11.86,52.37,22.79,1.44,1,2.84,2,4.24,3.06a3.71,3.71,0,0,1,.58.83c0,1.37-1.2,2.1-2,3-5,6-9.92,11.95-15,17.81-3.66,4.2-6.8,4.73-11.82,2.36-.29-.13-.57-.28-.85-.44C334.31,451.2,312,443.74,289.37,437a237.36,237.36,0,0,0-73.53-10.34c-29.64.63-58.62,5.07-86.16,16.71-15.4,6.52-29.8,14.72-42.17,26.12C75.77,480.26,66.77,493,62,508.33c-7.89,25.37-2.23,47.73,17.16,65.85,19.63,18.33,43.19,29.6,69.3,35.6,15,3.44,30.26,5.13,45.54,6.64,26.78,2.64,53.47,5.94,79.92,11,10.57,2,21.2,3.72,31.83,5.35,13.23,2,25.69,6.6,38.17,11.17,16.33,6,32.67,11.93,48.08,20.12,17.84,9.47,33.59,21.51,45.88,37.71a96.19,96.19,0,0,1,19.86,56.83c1.12,40.64-15.65,72.49-47.34,97.15-23.56,18.32-50,30.74-78.53,39.14A341.06,341.06,0,0,1,275.34,907a185.5,185.5,0,0,1-31.79,1.05c-21.68-1.15-43.2-3.86-64.66-7.08-21.82-3.27-43-9.18-63.92-15.88-13.7-4.38-27.36-8.89-41-13.31a45.55,45.55,0,0,1-10.62-5.21c-12.11-7.8-24.21-15.62-35.82-24.16a26.3,26.3,0,0,1-5.29-4.75c-2.29-2.89-2.49-5.17-.59-8.29a30.32,30.32,0,0,1,6.38-7c3.58-3.12,7.22-6.18,10.8-9.3,4.09-3.58,5.07-3.64,9.33-.19a354.39,354.39,0,0,0,33.25,23.67c17.73,11.26,37,18.47,57.3,23.23,20.64,4.84,41.37,9.38,62.27,12.82,25.06,4.12,50.26,5.51,75.66,1.79,14.57-2.13,29.16-3.63,43.33-7.92,20.95-6.34,40.45-15.43,57.5-29.4a97.72,97.72,0,0,0,30.91-44.15c2.67-7.63,5.09-15.25,5.88-23.38,1.32-13.58-1.43-26.42-6.34-38.95-6.59-16.78-19-28.62-33.38-38.55s-30.24-16.26-47.08-20.68c-10.69-2.81-21.2-6.33-32-8.85a397.7,397.7,0,0,0-59-9.22c-11.07-.88-22.17-.86-33.23-1.51A170.19,170.19,0,0,1,170.34,647c-19-4.91-38.1-9.29-57-14.49a188,188,0,0,1-51.51-22.63C43.32,598,29,582.61,20.65,562.05,17.9,555.31,16.31,548.19,13.91,541.33Z" transform="translate(-12.64 -132.41)"/><path class="cls-8" d="M705.93,399.86h281.4a24.9,24.9,0,0,1,6.15.33c3.47.87,5,2.35,5.09,5.87.16,6.81,0,13.62.08,20.43,0,1.37-.49,2.07-1.89,2.07l-4.28,0H735.32c-5.73,0-5.73,0-5.73,5.82q0,235.26,0,470.51c0,7.12,1,6.07-5.91,6.1-11.09.06-22.19,0-33.28,0-3.53,0-3.53-.06-3.59-3.69,0-1.11,0-2.21,0-3.32q0-234.32,0-468.62c0-6.92,1-6-6.07-6l-257.64,0c-6.53,0-5.52.9-5.57-5.43-.07-7,.07-13.94-.06-20.91-.05-2.52.82-3.46,3.29-3.17a34.4,34.4,0,0,0,3.8,0H705.93Z" transform="translate(-12.64 -132.41)"/><path class="cls-2" d="M1034.12,1188.07a31.87,31.87,0,0,0,9.62-3.8c17.53-10.34,36.56-15.57,56.82-16.56,17.32-.84,34.49,0,51.3,4.77a105.73,105.73,0,0,1,41.78,22.62c8.06,7.14,10.41,7,18.5-.09a106.43,106.43,0,0,1,52-24.89c25.32-4.5,50.44-3.78,75,4.45,9.63,3.22,18.86,7.35,27.16,13.33,14.46,10.42,23.61,24.43,28.27,41.53a29.2,29.2,0,0,1,.8,8c-.08,18.22-.16,36.43-.38,54.65-.12,9.73-2,11.52-11.69,12-.79,0-1.59.11-2.38.08-4-.13-5-1.05-5.53-5a35.63,35.63,0,0,1-.14-4.27c0-18.85-.15-37.7,0-56.55.13-14.44-5.45-26.08-16.34-35.34-12.11-10.3-26.27-16.35-41.68-19.49-22.53-4.58-44.7-3.47-66.24,5.13a73,73,0,0,0-23.91,15.15c-9.93,9.58-15.53,21-14.54,35.14,1.31,18.53.08,37-.06,55.58-.07,9.22-.24,9.22-9.34,9.22h-9.7c-.92-11.18-1.44-22.08-1.65-33q-.35-17.6.8-35.15c1.1-16.74-6-28.89-20.18-37.47-20.93-12.67-43.47-18.75-67.94-16.87a127.28,127.28,0,0,0-40.82,10c-10.7,4.6-19.33,11.92-26.83,20.7-3.11,3.63-3.67,8-3.71,12.46-.14,13.62-.17,27.24-.22,40.86,0,9.51,0,19-.09,28.52a32.57,32.57,0,0,1-.2,4.74c-.53,3.54-2,5-5.62,5.26a51.65,51.65,0,0,1-8.06.09c-4.53-.32-6.46-2.23-7-6.84a72.26,72.26,0,0,1-.39-8.06q0-53.46.14-106.92c0-3.49,0-7,1.15-10.34,1.67-4.81,4.38-6.56,9.4-5.82a16.92,16.92,0,0,1,7.85,3.13,7.67,7.67,0,0,1,2.79,5.82C1033.27,1179.14,1033.69,1183.39,1034.12,1188.07Z" transform="translate(-12.64 -132.41)"/><path class="cls-5" d="M1802.18,1190.09c.32-5.39.61-10.13.88-14.86a18.32,18.32,0,0,1,.75-5.14,5,5,0,0,1,3.58-3.44c4.93-1.35,9.74.21,14.6.56.91.07,1.23.91,1.26,1.75,0,1.26,0,2.53,0,3.8q0,62.23,0,124.46c0,1-.08,1.91,0,2.85.19,2.15-.87,2.68-2.83,2.63-4.43-.1-8.87-.13-13.3,0-2.33.08-2.91-1-3.11-3.07-.59-6-1.4-11.9-2.15-18a33.85,33.85,0,0,0-12.42,3.63c-18.7,10.31-38.9,15.84-60,18.27-14.79,1.72-29.37-.43-43.76-4-12-3-23.68-6.8-34.55-12.85a90,90,0,0,1-20.09-15c-20.39-20.47-20.41-52.39-.11-72.93,15.68-15.88,34.85-25,56.59-28.77,24.76-4.26,49.47-3.77,73.92,2.59,10.34,2.69,19.7,7.71,29.33,12.06C1794.44,1186.26,1797.94,1188,1802.18,1190.09Zm-84.87,98.43c7.43-.53,16-.57,24.46-1.89,19.89-3.1,36.91-11.67,50.67-26.54,7.24-7.84,9.74-17.25,9.14-27.56-.83-14.27-8-25.07-19.33-33.28-6.45-4.66-13.67-7.89-21.13-10.58-18.39-6.63-37.38-7.65-56.64-6.08a98,98,0,0,0-27.67,6.15c-10.41,4-20.12,9.33-28,17.37-16.46,16.74-16.43,41-.06,57.86a55.92,55.92,0,0,0,9.16,7.51C1675.55,1283.29,1695.19,1288.25,1717.31,1288.52Z" transform="translate(-12.64 -132.41)"/><path class="cls-2" d="M988,1238.54H795.36c1.67,12,6.85,21.51,15.71,29,12,10.11,26.13,15.77,41.32,19.17,20.86,4.67,41.54,3.27,62.13-1.51,10.51-2.45,21.18-3.69,31.86-5,.9-.11,1.88-.43,2.74.22.14,6.07-2,9.26-8,11.14-6.18,1.92-12.45,3.58-18.72,5.21-14.26,3.7-28.55,7-43.42,7.28a130,130,0,0,1-59.61-13.41c-7.27-3.52-14.44-7.25-20.82-12.26-13.5-10.58-21.71-24.23-22.9-41.51-1-15,4.18-28,14-39.16a72.67,72.67,0,0,1,18-14.59c24.26-14.33,50.52-20.46,78.59-19.4,16.73.63,33,3.17,48.56,9.8a106.17,106.17,0,0,1,32.94,22.06c8.7,8.53,14.67,18.52,16.81,30.69C985.24,1230.09,986.65,1233.84,988,1238.54Zm-191.75-11.89h168.1c-1.22-7.86-3.53-12.93-8.91-19.71-11.72-14.79-27.48-23-45.34-27.7-17.61-4.61-35.45-4.52-53.26-1.57a88.58,88.58,0,0,0-44.93,21.11,49.75,49.75,0,0,0-15.31,24.1C796.24,1224.08,795.75,1225.26,796.24,1226.65Z" transform="translate(-12.64 -132.41)"/><path class="cls-9" d="M582.12,1188.87c3.25-1.67,6.21-3.09,9.07-4.69a142.53,142.53,0,0,1,50.07-16.81c29.9-4.19,57.61,2,83.08,18,8.25,5.19,14.83,12.37,20.6,20.19a32.73,32.73,0,0,1,6.44,19.48c.39,24.87.17,49.74.16,74.6,0,3.86,0,3.89-3.85,4.1-2.37.14-4.75.3-7.12.25-5.36-.12-8-2.52-8.11-7.79-.28-11.4-.72-22.79-.5-34.2.23-12.2.4-24.39.33-36.58-.06-9.54-3.62-17.74-11.32-23.54-13.77-10.37-28.71-18.42-45.8-22-15.43-3.25-30.57-1.45-45.56,2.44a89.15,89.15,0,0,0-36.28,18.93c-8.23,7.09-12.07,15.81-12,26.71.23,23.75.11,47.51.11,71.27,0,4.26,0,4.29-4.46,4.49-3.16.15-6.33.31-9.5.25-4.29-.07-5.27-1-5.5-5.37-.26-4.9-.3-9.81-.3-14.72q0-54.4,0-108.82,0-33.49-.09-67c0-8.36.54-8.84,8.85-8.62,3,.08,6,0,9,0,1.4,0,2,.53,2,1.92s0,2.54,0,3.81q0,39,0,77.93C581.5,1184.74,581.2,1186.5,582.12,1188.87Z" transform="translate(-12.64 -132.41)"/><path class="cls-2" d="M1875.94,1303.76a56.91,56.91,0,0,1-12.85,0c-3.36-.38-5.39-2.29-6.15-5.67a23.21,23.21,0,0,1-.57-5.17q0-57,0-114.08a26,26,0,0,1,.84-6.58c1.12-4.3,3.37-6.21,7.79-6.11a40.78,40.78,0,0,1,7.51,1c3.47.72,3.49.81,3.51,4.34,0,5.7,0,11.39,0,17,1.4,1,2.25,0,3.16-.44,3.22-1.69,6.54-3.23,9.59-5.19,13.43-8.63,28.33-13.16,43.86-15.91,6.07-1.07,12.2-1.84,18.32-2.63a36.28,36.28,0,0,1,12.76.56c12.64,2.87,25.38,5.34,37.67,9.58a83.72,83.72,0,0,1,25.39,13.61c13.78,11.07,21,25.49,21.6,43.13.72,21.22.3,42.45.08,63.68a16.56,16.56,0,0,1-.27,3.31c-.88,4.06-2.31,5.44-6.52,5.47-9.81.07-10.11,0-10.44-9.29-.49-13.62-1.87-27.19-1.88-40.82,0-6.18.11-12.36.15-18.54.08-16.38-6.59-29.42-19.77-39-14-10.23-29.84-15.76-47-17.68-22.32-2.5-43.1,2.27-62.47,13.48a69.72,69.72,0,0,0-12.15,9.09c-8.7,8-12.66,17.79-12.24,29.66.83,23.75.25,47.52.24,71.29C1876.15,1302.39,1876,1303,1875.94,1303.76Z" transform="translate(-12.64 -132.41)"/><path class="cls-9" d="M2136,1303.91c-15-.64-34.38-3.26-52.59-11.52a34.13,34.13,0,0,1-7.47-4.1c-3.36-2.7-3.46-5-.46-7.89,3.6-3.52,5.49-3.79,10.05-1.35,12.37,6.63,25.71,9.66,39.61,10.37a216.31,216.31,0,0,0,38.4-1.78c11.28-1.43,21.35-11.93,22.37-23.3.43-4.7-1.54-8.67-4.64-12a38.58,38.58,0,0,0-21-12.22c-13.94-2.92-28-5.15-42-7.57-8.57-1.48-17.11-3.14-25.67-4.68a24.17,24.17,0,0,1-13.44-7.5,44.75,44.75,0,0,1-7.89-11.79c-2.17-4.53-2.06-9.14-.4-13.83,3.4-9.59,9.87-16.42,18.74-21.16,7.05-3.77,14.7-5.74,22.41-7.52,4.47-1,9-1.64,13.45-2.89,3.46-1,6.7-.06,10.07.09,14.47.64,28,4.69,41,10.76,4.74,2.21,5.28,4.72,2.05,8.84-3,3.83-6.34,4.73-10.82,2.49-18.93-9.47-38.64-10.09-58.74-5-10.6,2.69-16.76,10.26-20.15,20.29-1.55,4.61.78,8,4.14,10.77a53.87,53.87,0,0,0,21.5,10.66,66.39,66.39,0,0,0,16,1.68,123,123,0,0,1,52.86,11.66,54.63,54.63,0,0,1,9.43,5.45c12.87,9.51,15.7,26.44,6.61,39.63a37.42,37.42,0,0,1-11,10.33C2173.9,1300,2158,1304.31,2136,1303.91Z" transform="translate(-12.64 -132.41)"/><path class="cls-9" d="M1446.76,1243.11v-48.49c0-5.87,0-5.87-5.65-5.87h-41.36c-4.74,0-4.59.36-4.45-4.25.09-2.78-1.27-6.25.75-8.15,1.82-1.71,5.16-.54,7.83-.57,11.56-.1,23.13,0,34.7-.17,6.53-.08,8.1-1.75,8.17-8.23.17-15.52.3-31,.47-46.57,0-1.9.2-3.8.23-5.7,0-1.33.55-2.08,1.94-2.08h15.22c1.41,0,2,.75,1.92,2.09,0,1,0,1.91,0,2.86-.28,17,.5,33.89,1.71,50.8.43,5.91,2,7.45,8,7.44,12.83,0,25.67-.09,38.5-.1,3.56,0,3.56.06,4,3.63.08.62.11,1.26.18,1.89.64,5.83.64,5.83-5.48,5.83-13,0-26,0-39,0-6.15,0-5.38-.74-5.38,5.19q0,47.76,0,95.54a76,76,0,0,1-.55,8.52A7.77,7.77,0,0,1,1462,1304a26.45,26.45,0,0,1-2.77.64c-7.19,1-11.87-.77-12.06-9.73-.08-3.48-.39-7-.4-10.44C1446.73,1270.68,1446.76,1256.89,1446.76,1243.11Z" transform="translate(-12.64 -132.41)"/><path class="cls-9" d="M2337.36,1187.47c-1.93.89-3.69.53-5.4.53-14.26,0-28.51,0-42.76,0-4.29,0-4.37-.68-4.37,4.38q0,52.72,0,105.45c0,6.42.42,5.62-5.54,5.66-3.48,0-7,0-10.45,0s-3.47-.07-3.69-3.27c-1.28-19-1.76-38-1.63-57,.12-16.78.43-33.55.61-50.33,0-4.67.62-4.56-4.65-4.55q-21.86,0-43.71,0c-4.16,0-4.27,0-4.18-4.08,0-2.63-1.17-5.92.67-7.71,1.65-1.59,4.84-.47,7.34-.49,10.93-.06,21.86,0,32.78,0a46.94,46.94,0,0,0,5.69-.29c4.39-.53,5.46-1.49,5.83-5.94.31-3.78.23-7.59.24-11.39,0-14.09,0-28.19,0-42.28,0-3.52,0-3.63,3.51-3.94,4.42-.39,8.86-.49,13.27-.9,2-.19,2.54.61,2.43,2.39-.07,1.1,0,2.21,0,3.32,0,15.2,0,30.4.12,45.6a45.69,45.69,0,0,0,.55,6.61c.69,4.59,2.11,6,6.83,6.23,5.85.34,11.71.47,17.56.61,7.6.18,15.2.27,22.8.41,1.11,0,2.22,0,3.32.12,2.06.17,3,1.13,2.87,3.38C2337.21,1182.52,2337.36,1185.05,2337.36,1187.47Z" transform="translate(-12.64 -132.41)"/><path class="cls-10" d="M1572.65,1125.83c-5.13.07-9.2-4.88-8.26-9.62a4.71,4.71,0,0,1,2.75-3.57c4-1.92,10.61-1,13.85,1.88,2.26,2,2.49,3.79.56,6.12A14.17,14.17,0,0,1,1572.65,1125.83Z" transform="translate(-12.64 -132.41)"/><path class="cls-10" d="M1684.41,1128c-2.41-2.24-4.73-4.15-6.75-6.33-3.82-4.11-2.36-8.65,3.1-9.85a16.35,16.35,0,0,1,6.61-.18c2.47.47,4.47,1.71,5.32,4.17s.06,4.64-1.88,6.39Z" transform="translate(-12.64 -132.41)"/><path class="cls-10" d="M1757.46,1111.63c1,.06,1.91,0,2.84.19,3.56.59,5.17,2.61,5,6.26-.16,3.48-2.08,5.89-4.87,7.68a3.56,3.56,0,0,1-3.18.47,15.37,15.37,0,0,1-8.68-6.94c-1.15-2.1-.69-3.85,1.31-5.4A11.66,11.66,0,0,1,1757.46,1111.63Z" transform="translate(-12.64 -132.41)"/><path class="cls-11" d="M1636.13,494.45c-4.47,0-8.1.24-11.68-.05-17.45-1.41-34.76.16-52.09,1.9-20.79,2.08-41.33,5.68-61.84,9.51-12.48,2.33-24.86,1.21-37.25-1-21.78-3.92-43.6-7.6-65.69-9.36-12.79-1-25.56-1.9-38.4-1.29-7.5.36-8.8-1.43-6.07-8.22,11.69-29.09,27.21-55.76,50-77.64,14.38-13.79,30.27-25.51,49-32.79,23.87-9.26,47.7-7.94,71.38.81,17.16,6.34,32.11,16.15,45.64,28.42,22.38,20.31,38,45.2,49.89,72.63C1631.41,482.7,1633.54,488.13,1636.13,494.45Zm-87.61-31.84c13.72-.24,18.52-13.19,14.21-22.2a24.25,24.25,0,0,0-9.11-10,8.75,8.75,0,0,0-8.58-.62,24.58,24.58,0,0,0-10.94,9.42,13.16,13.16,0,0,0-1.41,12.19A16.05,16.05,0,0,0,1548.52,462.61Zm-114.09-32.53c-8.59-.08-15.48,7.65-15.59,17.51-.1,8,6.87,14.89,15.22,15,9,.14,17.16-8,17-17C1450.91,438.35,1442.15,430.15,1434.43,430.08Z" transform="translate(-12.64 -132.41)"/><path class="cls-12" d="M1625,726.24c-3.84,6.65-7.6,13.4-12,19.79a17.79,17.79,0,0,1-12.45,7.82,47,47,0,0,1-7.58.51l-110.76.1c-14.11,0-28.21-.19-42.31.17-10.77.27-21.54.11-32.31.34a69,69,0,0,1-9.94-.54c-7.47-.94-13.11-4.59-16.68-11.13-3-5.41-5.61-11-8.25-16.56-1.79-3.76-1.45-5.36,1.71-7.84,10.33-8.13,20.62-16.31,31.64-23.51a35.7,35.7,0,0,1,19.19-5.95c40.4-1,80.8-.3,121.2-.52q7.14,0,14.26-.31c10.12-.38,19.21,2.6,26.68,9.31,10.41,9.37,22,17,33.51,24.93C1622.36,723.82,1624.05,724.49,1625,726.24Z" transform="translate(-12.64 -132.41)"/><path class="cls-12" d="M1403.46,772.26h187.39c.89,1.43-.39,2.09-1,2.9a219.55,219.55,0,0,1-33.51,36.75c-12.56,11.14-24.7,22.75-37,34.15-.34.33-.68.66-1,1-12.44,10.87-24.36,11.66-38,2.23-13.47-9.3-25.63-20.17-37.13-31.78-12.6-12.72-24.36-26.21-35.74-40C1406.24,776,1405.15,774.47,1403.46,772.26Z" transform="translate(-12.64 -132.41)"/><path class="cls-12" d="M1435.93,670.51c10.57-14.56,20-28.76,28.91-43.35q3.44-5.67,6.85-11.37c3.29-5.46,7.9-8.32,14.49-8.06s13,.08,19.46,0a11.76,11.76,0,0,1,10.73,5.78q17.27,27.53,34.51,55.05c.31.49.81,1,.36,1.9Z" transform="translate(-12.64 -132.41)"/><path class="cls-13" d="M1492.51,559.92c8,9.22,11.4,19.4,13,30.72h-20.57Z" transform="translate(-12.64 -132.41)"/><path class="cls-5" d="M1548.52,462.61a16.05,16.05,0,0,1-15.83-11.18,13.16,13.16,0,0,1,1.41-12.19,24.58,24.58,0,0,1,10.94-9.42,8.75,8.75,0,0,1,8.58.62,24.25,24.25,0,0,1,9.11,10C1567,449.42,1562.24,462.37,1548.52,462.61Z" transform="translate(-12.64 -132.41)"/><path class="cls-5" d="M1434.43,430.08c7.72.07,16.48,8.27,16.62,15.55.17,9-8,17.12-17,17-8.35-.13-15.32-7-15.22-15C1419,437.73,1425.84,430,1434.43,430.08Z" transform="translate(-12.64 -132.41)"/></svg>