<svg id="Layer_1" data-name="Layer 1" xmlns="http://www.w3.org/2000/svg" viewBox="0 0 3000 1800"><defs><style>.cls-1{fill:#232222;}.cls-2{fill:#100f0e;}.cls-3{fill:#333;}.cls-4{fill:#2d2c29;}.cls-5{fill:#242424;}.cls-6{fill:#1d1d1e;}.cls-7{fill:#101010;}.cls-8{fill:#393939;}.cls-9{fill:#323232;}.cls-10{fill:#363636;}.cls-11{fill:#383737;}.cls-12{fill:#3b3b3b;}.cls-13{fill:#363434;}.cls-14{fill:#5a5b5c;}.cls-15{fill:#ecdf2c;}.cls-16{fill:#ebde2d;}.cls-17{fill:#ebdd2d;}.cls-18{fill:#c1b735;}.cls-19{fill:#302f26;}</style></defs><path class="cls-1" d="M190.22,1003.39l5.47.28c18.79,3.32,37.67,4.56,56.7,2.49l5-.23,17.4-2.28,5-.29c2.85-.41,5.72-.68,8.52-1.25,29.17-5.92,56.52-16,79.82-35.22a97.85,97.85,0,0,0,31.43-46.08l.07-.21c6.88-17,7.33-34.29,2.16-51.8l.14-.39-.32-.27q-1.16-3.45-2.33-6.91l.1-.34-.3-.2c-2.35-4.73-4.09-9.91-7.16-14.12-18.08-24.76-43.59-38.21-72.34-46.53l-2.3-.31A396.34,396.34,0,0,0,200.17,780.1l-10.47-.25c-7.53-1-15.19-1.41-22.58-3.05-14.32-3.19-28.42-7.43-42.75-10.57-22.25-4.88-43.75-11.69-63.92-22.4C36.82,731.27,17.91,714.11,7.8,688.72,5.14,682,3.4,675,1.24,668.12V645.76c.79-1.51,2-2.94,2.28-4.53,2.29-15,8.48-28.28,16.76-40.85,20.47-31.07,50.24-49.51,84.41-61.44,36.39-12.7,73.91-20.05,112.65-17.4,21.77,1.49,43.63,2.7,64.77,9.8,14.78,5,30.61,6.78,45.43,11.65,16.57,5.46,32.67,12.49,47.34,23.82-6.21,7.41-12.09,14.75-18.34,21.75-3.67,4.1-8.29,3.17-12.48.67-21.47-12.81-45.13-20.45-68.81-27.34-32.88-9.56-66.77-11.69-100.81-7.3-30.86,4-60.2,13-86.1,30.66C71.06,597,57.72,612.67,50.18,632.57a63.1,63.1,0,0,0,16.91,69.56c23,20.44,50.26,32.58,80.21,37.66,25,4.26,50.52,5.77,75.71,9.17,18,2.43,35.89,5.82,53.78,9.08,14,2.55,28.55,3.82,41.75,8.68,34.39,12.68,69.85,23.24,97.51,49.87,27.48,26.46,36.61,58.11,30.95,94.75-6.2,40.12-31.54,66.45-64.36,87.09-25.83,16.24-54.07,25.86-83.72,32.86-20,4.72-40.06,7.88-60.35,7.42-20-.47-40-2.85-59.8-5.58A377.82,377.82,0,0,1,130,1023.4c-22.81-6.29-45.2-14.14-67.77-21.32L58.73,1001c-3-1.67-6.23-3.12-9.11-5-12-8-24.19-15.65-35.69-24.28-8.4-6.3-8.11-10.23-.39-17.62,3.87-3.71,8.28-6.85,12.16-10.55,4.84-4.6,5.79-4.09,10.88.23,7.62,6.45,16,12,24.1,17.88,7.2,4.26,14.29,8.73,21.63,12.73,18.85,10.26,39.62,14.75,60.28,19.39C158.4,997.24,174.34,1000.18,190.22,1003.39Z"/><path class="cls-2" d="M3000.19,981.3v55.64h-39.62V521h38.73c.62,5.69,1.28,11.81,1.94,17.93v16.16c-.42,1-1.2,2.07-1.21,3.11,0,10.08.08,20.16.14,30.24-.05,20.7-.13,41.39-.11,62.08,0,1.32.77,2.64,1.18,4V822.17c-.41,1.32-1.18,2.64-1.18,4q0,37.88.12,75.75,0,24.18,0,48.37Q3000.17,965.78,3000.19,981.3Z"/><path class="cls-3" d="M1485.7,1505.48c-3.08-2.74-5.39-5.85-3.53-10.18s5.83-4.49,10-4.46c20.2.15,38.39-7,54.28-18.38,11.15-8,16.47-20.65,16.39-35q-.29-56.19-.24-112.38c0-8.82.6-17.64.93-26.72h18.84c.39,4.29,1.09,8.54,1.11,12.79.2,39.95-.48,79.91.65,119.83.93,32.83-17.14,53.49-45.26,64.24-9.93,3.79-20.75,5.22-31.13,7.85a41.43,41.43,0,0,0-5.84,2.43Z"/><path class="cls-4" d="M1783.74,474.8H1522l-.27,1.18c8.6,3.6,17.37,6.84,25.75,10.88,10.19,4.91,21.44,8.88,29.8,16.08,30.06,25.88,55.88,55.34,70.36,93.19,2.49,6.53,5.43,12.9,8.39,19.24,3.15,6.72,8.49,9.69,16,10.88a105,105,0,0,1,26.08,7.25c22,9.76,41.92,22.93,54.69,43.92A188,188,0,0,1,1779.1,756c2.94,27.68.72,54.93-7.58,81.54a167.56,167.56,0,0,1-8.87,23c-9.67,20-26,28.59-49.08,27.05-18-1.2-34.92-6.18-51.42-13.07a153.46,153.46,0,0,0-16.19-6.1c-1.66-.49-4.89.54-5.8,1.93-16.62,25.44-34.5,49.85-56.44,71.09-15.2,14.73-29.89,30-45.24,44.54-8.5,8.07-13,17.81-15.37,28.92-5.95,28.26-10.9,56.77-18.15,84.69-6,22.93-16,44.55-36.58,58.5a96.58,96.58,0,0,1-51.5,17.08c-30.06,1.3-58.15-5.76-86.42-14-33.64-9.77-65.42-24.16-96.72-39.38a442.31,442.31,0,0,1-121.56-87.17c-26.06-26.37-49.5-55.05-67.92-87.67-21.12-37.37-36.81-76.76-48.44-118-13.65-48.36-16.19-97.67-14-147.5,1.05-24.19,2.4-48.28,8.74-71.86a568.29,568.29,0,0,1,35.62-97.39c15.27-32.06,34.61-61.75,56.75-89.68,22.49-28.35,49.2-51.69,77.63-74,39.85-31.28,83.77-53.72,131.37-69.46C1327,267.5,1362.8,258,1400,255.86a129.23,129.23,0,0,1,46,5.64c22.08,6.87,37.64,21.14,46.34,42.37,4.29,10.45,10.72,14.34,22.21,14.24,58.21-.53,116.44-.35,174.65-.09a73,73,0,0,1,20,3.41c11.66,3.45,17.91,13.1,22.49,23.28,16.16,35.88,32.64,71.65,44.87,109.16C1778.73,460.5,1781.09,467.06,1783.74,474.8ZM1476.8,317.86c-2.3-4.28-3.83-6.94-5.19-9.68-9.52-19.18-25.51-28.3-46.35-30.46-24.11-2.49-47.79-1.6-71.2,5.6-11.59,3.56-24,4.59-35.47,8.43-35.09,11.74-69.56,24.79-101.53,44.11-39.66,24-77,50.13-107.49,85.83-31.57,37-56.82,77.46-74,122.83-15,39.6-28.07,79.85-30.82,122.5-1.64,25.35-3.24,50.8-2.85,76.17.63,40.81,11.23,80,24.13,118.38,10.76,32,27.84,61.23,46.3,89.18,14.48,21.92,32,42,49.33,61.82a391.05,391.05,0,0,0,40,39.27c38.26,32.88,83.69,53.48,129.36,73.56,33.86,14.89,69.41,24,105.64,30.2,20.26,3.45,39.86-.65,57.46-12.24,19.82-13.07,38.78-48.41,28.46-81.11-5-15.87-8.3-32.34-11.46-48.71-2.27-11.8-5.14-21.35-16.37-29.31-15-10.62-28.24-24.23-40.36-38.19-17.11-19.72-32.53-40.91-48.62-61.51-4.44-5.68-8.66-11.52-13.06-17.23-2-2.66-4.28-2.91-7.46-1.22a191.92,191.92,0,0,1-66.75,21.39c-25.25,3.1-45.22-7.43-54-29.11-5.32-13.07-10.34-26.67-12.61-40.5-4.94-30.11-6.38-60.43,2.93-90.28,5.35-17.19,10.92-34.4,21.26-49.23,20.25-29.06,47.46-47.66,83.26-52.54,11.1-1.51,20-6.36,23.34-18.18.38-1.38,1.1-2.66,1.61-4,11.48-30.53,28.18-57.74,51.62-80.61,18-17.54,37.31-33,62.05-40.12,7.53-2.17,15-4.55,22.5-6.83l-.27-1.43h-274c1.1-5.35,1.36-10.18,3.07-14.42,14.91-36.87,29.72-73.78,45.44-110.31a67.17,67.17,0,0,1,16.18-22.06c8.61-7.91,20.17-10,31.83-10h174.1Zm4.54,333.53c-12-2.17-23-4.16-33.95-6.12-39.4-7-79-9.18-118.49-1.87-29.3,5.41-55.44,16.7-72.17,43.76-12.7,20.54-24.1,41.6-26.93,65.86-4.17,35.68,1.33,70,17.24,102.45,3.57,7.29,8.92,10.85,16.77,11.49,13.82,1.13,27.28.79,39.38-7.38a24.34,24.34,0,0,1,8.14-3.73c18.37-4,33.82-14,49.4-23.68,29.31-18.22,55.77-39.46,74.91-68.89,15.15-23.29,28.84-47.24,36.87-73.94C1476.22,677,1478.4,664.23,1481.34,651.39Zm25.45-.41c3.86,14.11,7.67,27.51,11.18,41a213.72,213.72,0,0,0,46.72,87.58C1599,818.71,1642.25,845.28,1691,863c11.73,4.26,24,7,36.38,2.64,4.43-1.58,9.71-4.25,11.94-8,15.35-25.9,20.8-54.79,20.59-84.26-.12-15.2-4.62-30.53-8.37-45.49a117.85,117.85,0,0,0-37.27-61.29c-19.31-16.83-43.2-22.89-67.93-25.57C1600,636,1554.32,642.8,1506.79,651Zm230.68-235c-.91-3.54-1.32-6.58-2.45-9.33-6.43-15.62-13.2-31.1-19.53-46.76-5.32-13.18-17.22-21.68-31.49-21.68q-189.29,0-378.57,0c-14.53,0-25.63,6.1-31.6,19.7-6.14,14-11.83,28.11-17.61,42.23-2.07,5-3.85,10.21-6,15.85ZM1636.6,621c-2.61-6.45-4.45-11.38-6.57-16.17-9.81-22.18-21.27-43.26-37.9-61.31-15-16.28-31.79-30.6-51.92-39.24-32.74-14.06-65.25-14-97.08,5.41-39.7,24.16-64.49,59.66-81.52,101.57-3.53,8.67-2.16,10,7.35,9.69,32.69-1,64.76,4,96.82,9.45,10.54,1.79,21.32,4.18,31.84,3.6,13.74-.76,27.31-4.36,41-6.44,27.86-4.25,55.76-8,84.07-6.59C1626.57,621.18,1630.47,621,1636.6,621Zm-10.8,233.72c-12.71-9.1-24.9-16.14-34.94-25.49-9.76-9.08-20-13.34-33-12-2.87.28-5.79.26-8.69.26-42,0-84.09-.23-126.14.25a35.26,35.26,0,0,0-17.83,5.75c-11.74,7.68-22.74,16.51-33.84,25.13-1.16.9-1.88,3.89-1.29,5.28,2.31,5.48,5.44,10.61,7.86,16,4.53,10.18,12.58,14.23,23.29,14.2q61.2-.17,122.41-.24c23.83,0,47.65.27,71.47-.21,5.2-.11,12.11-1.38,15.17-4.83C1616.56,871.75,1620.78,862.83,1625.8,854.74Zm-33,46.35H1401.31c2.85,3.57,5.09,6.48,7.45,9.29,21,25,42.9,49.22,69.67,68.36,14.36,10.27,27,9.89,40-1.83,18.08-16.27,35.88-32.88,53.19-50C1579.14,919.54,1585.09,910.58,1592.75,901.09Zm-40.2-101.81c-12.55-20.06-24.5-39.3-36.62-58.42-2.77-4.38-7.19-5.8-12.32-5.63-6,.2-12,.3-18,0-7-.34-11.56,2.7-15.06,8.66-6.27,10.65-12.86,21.12-19.6,31.48-5.12,7.87-10.7,15.46-16.58,23.9ZM1484,718.73h21.43c-1.71-11.83-5-22.44-13.52-32.05C1489.15,697.73,1486.62,708,1484,718.73Z"/><path class="cls-5" d="M2778.28,775.45c17.23,7.69,34.13,14.39,50.24,22.62,24.63,12.6,44.47,30.73,57.59,55.42,14.75,27.77,17.19,56,4.91,85.78-11.16,27.09-30.45,46.15-54.33,61.56-22.82,14.73-48.29,22.65-74.17,30.22-23.84,7-48,7-72.16,7.1-86.39.29-172.78.13-259.16.14-1.25,0-2.49-.09-3.73,0-4.78.35-6.84-1.16-6.87-6.6-.43-67.05-1.23-134.1-1.72-201.15-.24-33.11-.15-66.22,0-99.33q.33-74.52,1-149c.14-15.92.7-31.83,1.12-47.75.06-2.44.4-4.87.67-7.89h6.51c77.27-.06,154.54-.5,231.8-.06,56.09.32,108.31,14.3,151.73,51.35,52.59,44.85,55.59,116.25,8.22,163.22-11.89,11.78-25.94,21.39-39,32C2780.14,773.68,2779.45,774.38,2778.28,775.45ZM2466,1004.65h8q117.15,0,234.3,0c20.2,0,40.05-2.27,59.32-8.48,30.71-9.91,56.66-25.81,73.36-55,18.28-31.92,10.82-69.47-11.68-94.12-26.84-29.41-63.37-39.2-101-44.55-16.69-2.37-33.9-1.29-50.88-1.32q-99.12-.18-198.25,0c-4.29,0-8.58.6-13.14.94Zm110.8-237.27q40.7,0,81.4,0c27.78,0,54.67-4.53,80.23-15.88,24.88-11.06,46.35-26.2,59.87-50.59,8.74-15.76,13.09-32.5,9.19-50.58-5.54-25.62-21.72-44.5-41.77-59.31-25.52-18.86-55.17-29-86.94-31-22.3-1.37-44.7-1.14-67.06-1.2-46-.12-92,0-137.94.09-4.39,0-7.71.11-7.68,6.48q.36,97.49,0,195c0,6,2.09,7.11,7.53,7.08C2508,767.27,2542.36,767.38,2576.75,767.38Z"/><path class="cls-6" d="M1821.25,1038.3c-.61-6.44-1.6-12-1.6-17.51q-.12-241.87,0-483.74c0-4.91.6-9.82,1-15.48h7.79c47.23,0,94.46-.23,141.69.12,22.75.17,45.69-.19,68.18,2.61,31.29,3.9,62.72,8.67,93.21,16.48,40.68,10.41,79.65,26.46,114.54,50.21,34.18,23.26,66.58,49.15,87.62,85.77,13.55,23.57,25.94,48.13,29,75.71,3.79,34.3,1.38,67.82-13.24,100-15.76,34.73-38.66,63.48-67.24,88.37-37.41,32.58-80.63,54-127.07,70.51-28,9.94-56.83,14.08-85.59,19.48q-18.66,3.51-37.4,6.6a73.24,73.24,0,0,1-11.76.78q-95.7.08-191.4,0Zm46.3-33.65h5.56c32.11.07,64.22.33,96.33.16,35.53-.19,71.18,1.47,106-8.5,18.21-5.21,37.12-8.07,55.19-13.67,36.36-11.25,69.24-29.46,99.1-53,36.74-29,66.34-63.23,78-109.83,4.25-16.92,8.06-33.83,6.36-51.9-3.33-35.61-17.75-66.51-39-94.08-28.78-37.36-67.43-63-109.69-82.33-49.5-22.63-102.34-34-156.68-35.83-44.07-1.52-88.23-.53-132.35-.59-2.23,0-4.46.75-6.71.89-3.9.25-5,2.09-5,6,.14,53.2-.24,106.39.17,159.58.6,77.8,1.76,155.6,2.6,233.4C1867.7,971.24,1867.55,987.55,1867.55,1004.65Z"/><path class="cls-7" d="M993.63,554.43H722.51v487.11H679.57V555.31H408.09V525.87H416q284.64,0,569.28-.08c5.74,0,8.53,1.55,8.4,7.48C993.53,539.85,993.63,546.43,993.63,554.43Z"/><path class="cls-8" d="M1029.33,1322.07c3.54-1.38,6.41-2,8.8-3.49,25.59-15.6,53.45-19.36,82.87-17.35,24,1.65,45.71,8.69,64.83,23.44,4.66,3.6,9.54,9.47,14.39,9.54,4.54.06,9.21-6.12,13.76-9.63,18.74-14.48,39.9-21.37,63.57-23.21,25.86-2,50.33,1.34,73.7,12.35,21.18,10,35.16,26.33,41.54,48.9a40.31,40.31,0,0,1,1.12,11q-.11,25.78-.53,51.55c-.16,10.2-1.84,12.63-8.43,13.1-10.87.79-11.09.67-11.13-10.33q-.12-28.24,0-56.5c0-13.64-5.17-24.8-15.24-33.89-31.87-28.78-93.37-31.55-127.92-6-14.07,10.41-22.09,22.93-21,41.42s.14,36.83,0,55.25a98.64,98.64,0,0,1-1.09,9.84h-18c-.5-10.74-1.32-21.36-1.42-32-.11-12.41,0-24.85.74-37.23,1-16.42-5.94-28.38-19.48-36.77-33.62-20.84-68.79-23-105.82-9.66-13.7,4.93-24.17,13.18-33,24-2.1,2.57-2.91,6.83-3,10.33-.33,24.21-.21,48.44-.42,72.66-.07,7.58-1.51,8.83-8.55,9.09-9.38.35-11.78-1.18-12.4-8.75-.39-4.73-.12-9.51-.12-14.27q0-49.08,0-98.15c0-1.86-.06-3.73.06-5.58.85-12.54,6.12-15.64,17.51-10a7.4,7.4,0,0,1,3.36,4.89C1028.82,1311.32,1028.89,1316.09,1029.33,1322.07Z"/><path class="cls-9" d="M1804.36,1323.89c.32-6.07.57-10.57.79-15.07.4-8,1.82-9.47,9.67-9.23,3.45.1,6.89.73,10.53,1.14V1437h-18.76c-.79-6.49-1.62-13.37-2.61-21.59-4.44,1.34-8.78,1.88-12.32,3.85-18.51,10.29-38.39,15.78-59.27,18.5-14.41,1.87-28.37.08-42.39-3-21.91-4.91-42.24-12.73-58.53-28.93a51.68,51.68,0,0,1-.91-72.43c18.19-18.86,41.1-28.19,66.54-31.21,23.14-2.74,46.32-1.7,68.88,4.74,7.46,2.14,14.49,5.82,21.63,9C1792.83,1318.13,1797.92,1320.77,1804.36,1323.89ZM1719.62,1423c3.92-.22,7.85-.45,11.77-.65,21.72-1.1,41.37-7.8,57.56-22.6,4.91-4.49,10-10,12.21-16,7.75-21.7-1.9-43-22.15-54.4-22.36-12.62-46.14-15.48-71.22-13.77-19.11,1.3-36.49,6.88-51.87,18.09-26.45,19.27-25.5,53.19,1.56,71.6C1676.3,1418.07,1697.15,1423.24,1719.62,1423Z"/><path class="cls-10" d="M982.91,1372.27H788.74c1.9,13,7.48,22.41,16.28,29.73,16,13.28,35,19,55.24,21.4,18.58,2.24,36.6-.89,54.65-5,9.37-2.13,19.09-2.76,29.19-4.13-.05,7.75-4.48,10.59-9.75,12-13.76,3.67-27.48,7.75-41.47,10.2-33.9,5.93-65.28-1.91-94.32-19.68-37.26-22.81-41.85-73.53,2.54-99.94,30.42-18.11,63.24-23.11,97.92-18.24,21.57,3,40.9,11,57.67,25.19,11.21,9.47,19.76,20.36,22.49,35.18C979.92,1363,981.36,1366.83,982.91,1372.27ZM960,1360.8c-1.87-5.27-2.69-10-5.06-13.82a72.49,72.49,0,0,0-27.32-25.54c-22.12-12-46-14.34-70.46-11.51-19,2.19-36.38,9.14-51,21.81a50.77,50.77,0,0,0-17,29.06Z"/><path class="cls-11" d="M573.05,1437.68c-3.53.24-6.4.49-9.27.62-9.87.47-10.38.15-10.39-10.06q-.1-95-.12-190c0-4.64,1-6.9,6.25-6.31,4.26.49,8.62.1,13.53.1v90.85c10.31-5.06,19.67-10.78,29.79-14.43,38.14-13.78,75.63-12.21,111.11,8.27,8.54,4.93,16,12.5,22.36,20.16,4.24,5.12,7.78,12.49,8,19,.87,27.06.36,54.16.36,81.94-3.72.24-7.17.63-10.62.65-5.13,0-8.22-2.48-8.37-7.81-.24-8.48-.52-17-.5-25.43,0-15.11.36-30.21.39-45.31,0-10.84-4.45-19.8-13.21-26-21.05-15-43.92-25-70.51-22.12-22,2.41-42.33,9.13-58.9,24.76-6.7,6.32-10.05,13.67-10,23C573.2,1385.38,573.05,1411.23,573.05,1437.68Z"/><path class="cls-11" d="M1878.45,1301.41v22.1c5.56-3,10.15-5.13,14.37-7.84,19.07-12.22,40.83-15.73,62.55-18.13,8.87-1,18.32,2.36,27.38,4.33,15.57,3.39,30.79,7.75,44.11,17.13,16.22,11.41,24.65,27.23,25.28,46.69.69,21.51.29,43,.07,64.57,0,2.52-1.51,6.74-3.14,7.19-3.78,1-8.11.53-12.13,0-.77-.1-1.59-3.13-1.66-4.83-.83-19.83-2.83-39.73-1.91-59.49,1.11-24.05-9.53-39.11-29.87-50.1-35-18.91-79.68-15.84-109.65,8.54-10.14,8.25-16,18-15.49,32,.83,24.78.24,49.61.24,75-2.06,0-3.82,0-5.59,0-12.09.23-14-1.58-14-13.61q0-54.95,0-109.91C1859,1299.45,1862.29,1297.1,1878.45,1301.41Z"/><path class="cls-12" d="M2137,1296.72c15.44-.36,29.8,4,43.65,10.25,2.8,1.27,6.81,2.46,4.31,7.13-2.72,5.08-7.21,7-11.2,4.9-19.35-10.06-39.66-10.64-60.31-5.55-8.4,2.07-14.31,8-18.39,15.49s-3.12,12.51,3.95,17.6a55.54,55.54,0,0,0,33.59,11,128,128,0,0,1,55.37,11.61c9.82,4.54,18.8,10.67,21.32,22.45,2.71,12.68-2.69,25.11-15.29,33.24-16.92,10.93-36.06,14.9-55.72,13.36-18.86-1.49-37.74-4.65-54.91-13.62-7.6-4-7.59-7.74-.22-12.17,1-.61,2.9-.93,3.8-.41,25.12,14.65,52.32,13.17,79.72,10.53,8.41-.81,15-4.63,19.59-11.48,9.26-14,5.42-22.71-8.24-32.08-6.88-4.72-16.52-5.87-25.13-7.54-18.82-3.65-37.9-6.07-56.64-10.06-9.8-2.09-15.92-9.89-20.41-18.65-3.36-6.54-1.89-12.81,1.22-18.94,5.85-11.54,16.23-17.61,27.82-21.26,10.33-3.25,21.17-4.9,31.78-7.26C2136.74,1295.73,2136.85,1296.22,2137,1296.72Z"/><path class="cls-13" d="M1446,1322h-52v-12.75h36.53q4,0,8.07-.09c5-.1,7.49-2.47,7.47-7.71-.06-15.1.07-30.21.19-45.31,0-3.28.31-6.55.5-10.23h18.88c0,8.19-.2,16.2.05,24.19q.52,16.68,1.64,33.35c.31,4.48,2.72,6.33,7.76,6.17,14-.44,28.12-.15,42.67-.15.47,3.68.9,7,1.43,11.16H1468v7.29q0,48.72,0,97.44c0,9.91-2.22,12.71-10.4,13.75-7.17.92-10.74-1.69-11.24-8.87-.42-6.18-.31-12.4-.32-18.61q0-38.79,0-77.58Z"/><path class="cls-3" d="M2269.73,1321.58h-52.62v-12.1h39.67c12.72,0,12.81,0,12.89-13,.1-16.73,0-33.47,0-51.13l19.18-1.3c0,5,0,9.68,0,14.35,0,12.62-.14,25.25.11,37.86.24,12.08,1.41,13,13.3,13.1,12.61.15,25.22.51,37.84.81a23.84,23.84,0,0,1,3.13.51v10.73h-53v116.44H2271C2268.06,1399.46,2269.55,1360.88,2269.73,1321.58Z"/><path class="cls-14" d="M1572.9,1244.48c5.26,0,11,4.08,9.49,7.11s-5.53,5.9-8.94,6.67c-4.81,1.1-9.51-3.4-9.44-7.63C1564.12,1244.06,1569.36,1245.09,1572.9,1244.48Z"/><path class="cls-14" d="M1685.24,1260.73c-3.83-4.09-8.32-6.68-8.75-9.83-.75-5.43,4.65-6.53,9-6.7,4.7-.19,8.77,2.75,8.26,7.06C1693.45,1254.22,1689.08,1256.71,1685.24,1260.73Z"/><path class="cls-14" d="M1759.12,1244.44c3.64.17,7.84.43,7.72,6.44-.07,3.88-5,9.41-8.24,8-3.44-1.45-7.37-4.24-8.73-7.45C1748.28,1247.72,1752.85,1244.46,1759.12,1244.44Z"/><path class="cls-15" d="M1636.6,621c-6.13,0-10,.16-13.92,0-28.31-1.36-56.21,2.34-84.07,6.59-13.68,2.08-27.25,5.68-41,6.44-10.52.58-21.3-1.81-31.84-3.6-32.06-5.42-64.13-10.49-96.82-9.45-9.51.3-10.88-1-7.35-9.69,17-41.91,41.82-77.41,81.52-101.57,31.83-19.37,64.34-19.47,97.08-5.41,20.13,8.64,36.92,23,51.92,39.24,16.63,18.05,28.09,39.13,37.9,61.31C1632.15,609.64,1634,614.57,1636.6,621Zm-88.18-32.3c9.08-.1,15.18-6.41,15.24-15.79,0-7.83-8.57-18-15-17.77-7.27.3-17.07,10.33-16.87,17.26C1532.07,581.78,1539.25,588.81,1548.42,588.72Zm-98.67-17c.08-6.85-8.41-15.17-15.82-15.5-8.92-.41-15.86,7.18-16.16,17.64-.22,7.64,7,14.66,15.12,14.82C1441.86,588.88,1449.65,581.06,1449.75,571.76Z"/><path class="cls-16" d="M1625.8,854.74c-5,8.09-9.24,17-15.53,24.1-3.06,3.45-10,4.72-15.17,4.83-23.82.48-47.64.17-71.47.21q-61.2.07-122.41.24c-10.71,0-18.76-4-23.29-14.2-2.42-5.44-5.55-10.57-7.86-16-.59-1.39.13-4.38,1.29-5.28,11.1-8.62,22.1-17.45,33.84-25.13a35.26,35.26,0,0,1,17.83-5.75c42-.48,84.1-.24,126.14-.25,2.9,0,5.82,0,8.69-.26,13-1.29,23.24,3,33,12C1600.9,838.6,1613.09,845.64,1625.8,854.74Z"/><path class="cls-17" d="M1592.75,901.09c-7.66,9.49-13.61,18.45-21.11,25.86-17.31,17.08-35.11,33.69-53.19,50-13,11.72-25.66,12.1-40,1.83-26.77-19.14-48.62-43.36-69.67-68.36-2.36-2.81-4.6-5.72-7.45-9.29Z"/><path class="cls-17" d="M1552.55,799.28H1434.39c5.88-8.44,11.46-16,16.58-23.9,6.74-10.36,13.33-20.83,19.6-31.48,3.5-6,8-9,15.06-8.66,6,.29,12,.19,18,0,5.13-.17,9.55,1.25,12.32,5.63C1528.05,760,1540,779.22,1552.55,799.28Z"/><path class="cls-18" d="M1484,718.73c2.65-10.74,5.18-21,7.91-32.05,8.5,9.61,11.81,20.22,13.52,32.05Z"/><path class="cls-19" d="M1548.42,588.72c-9.17.09-16.35-6.94-16.62-16.3-.2-6.93,9.6-17,16.87-17.26,6.42-.27,15,9.94,15,17.77C1563.6,582.31,1557.5,588.62,1548.42,588.72Z"/><path class="cls-19" d="M1449.75,571.76c-.1,9.3-7.89,17.12-16.86,17-8.16-.16-15.34-7.18-15.12-14.82.3-10.46,7.24-18,16.16-17.64C1441.34,556.59,1449.83,564.91,1449.75,571.76Z"/></svg>